<svg xmlns="http://www.w3.org/2000/svg" width="14.853" height="15.533" viewBox="0 0 14.853 15.533">
  <g id="ico-not-scheduled" transform="translate(18009 12243.066)">
    <path id="Path_12004" data-name="Path 12004" d="M599.625,9.414a1.878,1.878,0,0,1,.094-.661,1.035,1.035,0,0,1,.307-.42,2.042,2.042,0,0,0,.322-.326.529.529,0,0,0,.111-.326q0-.433-.373-.433a.348.348,0,0,0-.279.126.539.539,0,0,0-.111.342h-.97a1.157,1.157,0,0,1,.362-.894,1.441,1.441,0,0,1,1-.32,1.5,1.5,0,0,1,.992.3,1.038,1.038,0,0,1,.351.841.984.984,0,0,1-.094.433,1.47,1.47,0,0,1-.3.4l-.33.307a.772.772,0,0,0-.2.277,1.106,1.106,0,0,0-.06.36Zm-.118.873a.444.444,0,0,1,.154-.349.606.606,0,0,1,.766,0,.472.472,0,0,1,0,.7.606.606,0,0,1-.766,0,.444.444,0,0,1-.154-.349" transform="translate(-18601.781 -12247.071)" fill="#343434"/>
    <g id="Group_3572" data-name="Group 3572" transform="translate(25.672)">
      <path id="Path_12003" data-name="Path 12003" d="M7.43,8.37a1.76,1.76,0,1,1-1.76,1.76A1.76,1.76,0,0,1,7.43,8.37" transform="translate(-18034.766 -12243)" fill="#343434"/>
      <path id="Path_12002" data-name="Path 12002" d="M9.684,11.713a2.747,2.747,0,0,1-4.509,0A4.376,4.376,0,0,0,3.1,14.767a.638.638,0,0,0-.007.087.614.614,0,0,0,.614.613H11.15a.636.636,0,0,0,.087-.006.614.614,0,0,0,.52-.694,4.381,4.381,0,0,0-2.073-3.054" transform="translate(-18034.766 -12243)" fill="#343434"/>
    </g>
    <path id="Path_12001" data-name="Path 12001" d="M11.945,0H2.915A2.917,2.917,0,0,0,0,2.915v8.61a2.911,2.911,0,0,0,2.183,2.81,5.32,5.32,0,0,1,.3-.963,1.9,1.9,0,0,1-1.472-1.847V2.915a1.9,1.9,0,0,1,1.9-1.9h9.03a1.9,1.9,0,0,1,1.9,1.9v8.608a1.9,1.9,0,0,1-1.474,1.849,5.483,5.483,0,0,1,.3.963,2.914,2.914,0,0,0,2.186-2.812V2.916A2.921,2.921,0,0,0,11.945,0" transform="translate(-18009 -12243.066)" fill="#343434"/>
  </g>
</svg>
