<svg xmlns="http://www.w3.org/2000/svg" width="14.853" height="15.533" viewBox="0 0 14.853 15.533">
  <g id="ico-present-02" transform="translate(18047 12243.066)">
    <g id="Group_3572" data-name="Group 3572" transform="translate(-12.328)">
      <path id="Path_12003" data-name="Path 12003" d="M7.43,8.37a1.76,1.76,0,1,1-1.76,1.76A1.76,1.76,0,0,1,7.43,8.37" transform="translate(-18034.766 -12243)" fill="#343434"/>
      <path id="Path_12002" data-name="Path 12002" d="M9.684,11.713a2.747,2.747,0,0,1-4.509,0A4.376,4.376,0,0,0,3.1,14.767a.638.638,0,0,0-.007.087.614.614,0,0,0,.614.613H11.15a.636.636,0,0,0,.087-.006.614.614,0,0,0,.52-.694,4.381,4.381,0,0,0-2.073-3.054" transform="translate(-18034.766 -12243)" fill="#343434"/>
    </g>
    <path id="Path_12007" data-name="Path 12007" d="M124.188-66.472a1.471,1.471,0,0,0-.271.1c-.37.185-.273.141-.513.258a.447.447,0,0,1-.433-.073c-.013-.181-.032-.361-.032-.543,0-1.587.515-2.835,1.249-3.15V-70.7a.366.366,0,0,1,.366-.366.366.366,0,0,1,.366.366v.82a2.7,2.7,0,0,1,1.18,2.164v0a6.7,6.7,0,0,1,.072.983c0,.182-.018.363-.032.537-.155.091-.277.156-.433.077l-.167-.085c-.066-.033-.124-.061-.344-.173a1.338,1.338,0,0,0-.275-.1v1.286l-.732,0ZM121-66.41a3.548,3.548,0,0,1,2.455-3.364,4.724,4.724,0,0,0-.881,3.041c0,.132.01.265.02.4a1.412,1.412,0,0,0-1.092.2.324.324,0,0,1-.181.055A.323.323,0,0,1,121-66.41Zm6.6.269a1.409,1.409,0,0,0-1.087-.2c.011-.13.021-.263.021-.394a7.335,7.335,0,0,0-.075-1.039,3.905,3.905,0,0,0-.817-2.006,3.549,3.549,0,0,1,2.462,3.366.322.322,0,0,1-.055.179.322.322,0,0,1-.269.144A.321.321,0,0,1,127.6-66.141Z" transform="translate(-18164.223 -12170.161)" fill="#343434" stroke="rgba(0,0,0,0)" stroke-width="1"/>
    <path id="Path_12001" data-name="Path 12001" d="M11.945,0H2.915A2.917,2.917,0,0,0,0,2.915v8.61a2.911,2.911,0,0,0,2.183,2.81,5.32,5.32,0,0,1,.3-.963,1.9,1.9,0,0,1-1.472-1.847V2.915a1.9,1.9,0,0,1,1.9-1.9h9.03a1.9,1.9,0,0,1,1.9,1.9v8.608a1.9,1.9,0,0,1-1.474,1.849,5.483,5.483,0,0,1,.3.963,2.914,2.914,0,0,0,2.186-2.812V2.916A2.921,2.921,0,0,0,11.945,0" transform="translate(-18047 -12243.066)" fill="#343434"/>
  </g>
</svg>
