<svg xmlns="http://www.w3.org/2000/svg" width="12.704" height="7.94" viewBox="0 0 12.704 7.94">
  <path id="Icon_metro-eye" data-name="Icon metro-eye" d="M8.923,7.712a7.115,7.115,0,0,0-6.352,3.97,7.067,7.067,0,0,0,12.7,0A7.115,7.115,0,0,0,8.923,7.712Zm3.132,2.105a6.041,6.041,0,0,1,1.854,1.865,6.041,6.041,0,0,1-1.854,1.865,5.821,5.821,0,0,1-6.264,0,6.041,6.041,0,0,1-1.854-1.865A6.04,6.04,0,0,1,5.791,9.818c.049-.031.1-.061.147-.091a3.176,3.176,0,1,0,5.97,0l.147.091Zm-3.132.674A1.191,1.191,0,1,1,7.732,9.3,1.191,1.191,0,0,1,8.923,10.491Z" transform="translate(-2.571 -7.712)" fill="#333"/>
</svg>
