<svg xmlns="http://www.w3.org/2000/svg" width="40.498" height="17.012" viewBox="0 0 40.498 17.012">
  <g id="Component_Stack" data-name="Component Stack" transform="translate(-221.502 0.512)">
    <g id="icons_stack" data-name="icons stack" transform="translate(21398)">
      <path id="minimize-icon" d="M1,0H15a1,1,0,0,1,0,2H1A1,1,0,0,1,1,0Z" transform="translate(-21152 7)" fill="#008f42"/>
      <path id="day-calendar-icon" d="M2.063,16A2,2,0,0,1,.052,14.386,2.309,2.309,0,0,1,0,13.942c0-3.3-.008-6.6,0-9.9A1.964,1.964,0,0,1,1.177,2.186,1.963,1.963,0,0,1,2.043,2c.365,0,.73,0,1.1,0h.118V1.879c0-.359,0-.718,0-1.077A.728.728,0,0,1,3.974,0,.68.68,0,0,1,4.68.463a1.189,1.189,0,0,1,.062.362c.008.352,0,.7,0,1.058V1.99H9.257V1.884c0-.368,0-.737,0-1.105A.732.732,0,0,1,9.61.112a.742.742,0,0,1,1.134.651c.007.368,0,.737,0,1.105v.122c.041,0,.075,0,.108,0H11.94a2.01,2.01,0,0,1,2.009,1.613A2.079,2.079,0,0,1,14,4.052Q14,9,14,13.942a2.023,2.023,0,0,1-1.728,2.031,1.983,1.983,0,0,1-.322.025l-5.7,0Q4.156,16,2.063,16ZM1.5,6.1q0,3.916,0,7.831a.5.5,0,0,0,.564.569h9.876a.5.5,0,0,0,.565-.569q0-3.916,0-7.831c0-.034,0-.067,0-.1H1.5ZM3.508,12a.473.473,0,0,1-.5-.525c0-.419,0-.838,0-1.258q0-.824,0-1.648A.5.5,0,0,1,3.574,8Q5,8,6.421,8a.977.977,0,0,1,.207.021.465.465,0,0,1,.365.5c0,.27,0,.54,0,.81q0,.338,0,.676,0,.7,0,1.41a.954.954,0,0,1-.013.19.464.464,0,0,1-.5.388L4.966,12Q4.237,12,3.508,12Z" transform="translate(-21176 0)" fill="#008f42" stroke="rgba(0,0,0,0)" stroke-width="1"/>
    </g>
  </g>
</svg>
