<svg id="ico-leave-approved" xmlns="http://www.w3.org/2000/svg" width="14.853" height="15.533" viewBox="0 0 14.853 15.533">
  <g id="Group_3571" data-name="Group 3571">
    <path id="Path_11998" data-name="Path 11998" d="M3.425,9a.376.376,0,0,0,.586.313,1.643,1.643,0,0,1,1.273-.228c-.012-.154-.024-.308-.024-.462A5.5,5.5,0,0,1,6.288,5.081,4.137,4.137,0,0,0,3.425,9" fill="#343434"/>
    <path id="Path_11999" data-name="Path 11999" d="M11.126,9.316A.377.377,0,0,0,11.712,9,4.136,4.136,0,0,0,8.842,5.08,4.537,4.537,0,0,1,9.8,7.418a8.46,8.46,0,0,1,.088,1.21c0,.154-.012.308-.024.46a1.642,1.642,0,0,1,1.267.228" fill="#343434"/>
    <path id="Path_12000" data-name="Path 12000" d="M11.386,12.523H8V8.929a1.615,1.615,0,0,1,.321.114c.257.131.324.164.4.2l.195.1c.181.091.324.016.5-.09.016-.2.038-.415.038-.626a7.837,7.837,0,0,0-.085-1.145v0A3.145,3.145,0,0,0,8,4.958V4a.427.427,0,0,0-.854,0v.952c-.856.368-1.456,1.822-1.456,3.672,0,.211.022.422.037.633a.523.523,0,0,0,.505.085c.279-.136.166-.085.6-.3a1.727,1.727,0,0,1,.316-.113v2a1.357,1.357,0,0,0-.526-.106H3.4l-.443-.589a.633.633,0,0,0-.512-.256.624.624,0,0,0-.381.127.636.636,0,0,0-.248.419.624.624,0,0,0,.121.47L3.84,13.537a.641.641,0,0,0,.512.256h.227l-.42,1.169a.427.427,0,0,0,.8.289l.523-1.458h4.72l.523,1.458a.427.427,0,0,0,.8-.289l-.419-1.169h.268a.637.637,0,0,0,.636-.635h0a.637.637,0,0,0-.635-.635m-7.349-.844h2.58a.529.529,0,0,1,.526.523v.32H4.67Z" fill="#343434"/>
    <path id="Path_12001" data-name="Path 12001" d="M11.945,0H2.915A2.917,2.917,0,0,0,0,2.915v8.61a2.911,2.911,0,0,0,2.183,2.81,5.32,5.32,0,0,1,.3-.963,1.9,1.9,0,0,1-1.472-1.847V2.915a1.9,1.9,0,0,1,1.9-1.9h9.03a1.9,1.9,0,0,1,1.9,1.9v8.608a1.9,1.9,0,0,1-1.474,1.849,5.483,5.483,0,0,1,.3.963,2.914,2.914,0,0,0,2.186-2.812V2.916A2.921,2.921,0,0,0,11.945,0" fill="#343434"/>
  </g>
</svg>
