<svg xmlns="http://www.w3.org/2000/svg" width="15.861" height="16.467" viewBox="0 0 15.861 16.467">
  <path id="ico-absent" d="M3.708,15.467a.614.614,0,0,1-.614-.614.56.56,0,0,1,.007-.086,4.374,4.374,0,0,1,2.074-3.056,2.747,2.747,0,0,0,4.509,0,4.381,4.381,0,0,1,2.073,3.055.613.613,0,0,1-.519.694.725.725,0,0,1-.087.006Zm8.663-2.094a1.9,1.9,0,0,0,1.473-1.849V2.916a1.9,1.9,0,0,0-1.9-1.9H2.915a1.9,1.9,0,0,0-1.9,1.9v8.61a1.9,1.9,0,0,0,1.472,1.847,5.378,5.378,0,0,0-.3.963A2.912,2.912,0,0,1,0,11.525V2.915A2.917,2.917,0,0,1,2.915,0h9.03a2.919,2.919,0,0,1,2.916,2.916v8.608a2.913,2.913,0,0,1-2.186,2.813A5.5,5.5,0,0,0,12.371,13.373ZM5.67,10.13A1.76,1.76,0,1,1,7.43,11.89,1.761,1.761,0,0,1,5.67,10.13ZM8.587,6.79,7.178,5.382,5.771,6.79a.5.5,0,0,1-.707-.707L6.472,4.675,5.063,3.268a.5.5,0,0,1,.707-.708L7.178,3.968,8.587,2.56a.5.5,0,0,1,.852.329v.051a.5.5,0,0,1-.146.329L7.886,4.675,9.293,6.082a.5.5,0,0,1,.146.328v.051a.5.5,0,0,1-.5.474A.5.5,0,0,1,8.587,6.79Z" transform="translate(0.5 0.5)" fill="#343434" stroke="rgba(0,0,0,0)" stroke-width="1"/>
</svg>
